<svg width="62" height="64" viewBox="0 0 62 64" fill="none" xmlns="http://www.w3.org/2000/svg">
<ellipse cx="31" cy="32" rx="31" ry="32" fill="#F3F3F3"/>
<path d="M31.1695 26.8226L23.1673 33.4134V40.5266C23.1673 40.7108 23.2405 40.8875 23.3707 41.0177C23.5009 41.1479 23.6776 41.2211 23.8618 41.2211L28.7255 41.2085C28.9091 41.2076 29.0848 41.134 29.2143 41.0039C29.3438 40.8737 29.4165 40.6976 29.4164 40.5141V36.36C29.4164 36.1758 29.4896 35.9992 29.6198 35.8689C29.7501 35.7387 29.9267 35.6655 30.1109 35.6655H32.8887C33.0728 35.6655 33.2495 35.7387 33.3797 35.8689C33.51 35.9992 33.5831 36.1758 33.5831 36.36V40.511C33.5828 40.6024 33.6006 40.6929 33.6354 40.7774C33.6701 40.8619 33.7212 40.9387 33.7857 41.0035C33.8503 41.0682 33.9269 41.1195 34.0113 41.1546C34.0957 41.1896 34.1862 41.2076 34.2776 41.2076L39.1395 41.2211C39.3237 41.2211 39.5004 41.1479 39.6306 41.0177C39.7608 40.8875 39.834 40.7108 39.834 40.5266V33.4086L31.8335 26.8226C31.7395 26.7468 31.6223 26.7055 31.5015 26.7055C31.3807 26.7055 31.2635 26.7468 31.1695 26.8226ZM43.8097 31.3022L40.1812 28.3114V22.2996C40.1812 22.1615 40.1263 22.029 40.0287 21.9314C39.931 21.8337 39.7985 21.7788 39.6604 21.7788H37.2298C37.0917 21.7788 36.9592 21.8337 36.8615 21.9314C36.7639 22.029 36.709 22.1615 36.709 22.2996V25.4511L32.8231 22.2541C32.4502 21.9472 31.9823 21.7794 31.4993 21.7794C31.0164 21.7794 30.5485 21.9472 30.1756 22.2541L19.189 31.3022C19.1363 31.3458 19.0926 31.3994 19.0606 31.4599C19.0286 31.5203 19.0088 31.5865 19.0023 31.6546C18.9959 31.7227 19.0029 31.7915 19.023 31.8568C19.0431 31.9222 19.076 31.983 19.1196 32.0358L20.2263 33.3812C20.2698 33.4341 20.3234 33.4779 20.3838 33.5101C20.4443 33.5423 20.5105 33.5623 20.5786 33.5688C20.6468 33.5754 20.7156 33.5685 20.7811 33.5484C20.8466 33.5284 20.9075 33.4956 20.9603 33.452L31.1695 25.0431C31.2635 24.9673 31.3807 24.926 31.5015 24.926C31.6223 24.926 31.7395 24.9673 31.8335 25.0431L42.0432 33.452C42.0959 33.4956 42.1567 33.5284 42.2221 33.5485C42.2875 33.5687 42.3562 33.5757 42.4243 33.5692C42.4924 33.5628 42.5586 33.543 42.6191 33.5109C42.6795 33.4789 42.7331 33.4353 42.7767 33.3825L43.8835 32.0371C43.927 31.984 43.9597 31.9229 43.9796 31.8572C43.9995 31.7916 44.0062 31.7226 43.9993 31.6543C43.9925 31.586 43.9722 31.5198 43.9396 31.4594C43.9071 31.3989 43.8629 31.3455 43.8097 31.3022Z" fill="#B7B7B7"/>
</svg>
