<svg width="333" height="124" viewBox="0 0 333 124" fill="none" xmlns="http://www.w3.org/2000/svg">
<g filter="url(#filter0_d_3314_5065)">
<g clip-path="url(#clip0_3314_5065)">
<rect x="18" y="10" width="297" height="88" rx="20" fill="#1576EF"/>
<mask id="mask0_3314_5065" style="mask-type:alpha" maskUnits="userSpaceOnUse" x="18" y="10" width="297" height="88">
<rect x="18" y="10" width="297" height="88" rx="8" fill="#1576EF"/>
</mask>
<g mask="url(#mask0_3314_5065)">
<path style="mix-blend-mode:soft-light" opacity="0.5" fill-rule="evenodd" clip-rule="evenodd" d="M6.78906 106.375C34.5118 64.7229 70.7749 36.9208 115.579 22.9683C160.382 9.01575 226.626 3.30535 314.31 5.83707V106.375H6.78906Z" fill="url(#paint0_linear_3314_5065)"/>
<path style="mix-blend-mode:soft-light" opacity="0.5" fill-rule="evenodd" clip-rule="evenodd" d="M80 106.121C107.723 64.4692 143.986 36.667 188.789 22.7145C233.593 8.76197 299.837 3.05157 387.521 5.58328V106.121H80Z" fill="url(#paint1_linear_3314_5065)"/>
<path style="mix-blend-mode:multiply" opacity="0.5" fill-rule="evenodd" clip-rule="evenodd" d="M13.1709 106.121C15.3461 76.9012 59.6512 67.4774 146.086 77.8496C232.521 88.2219 291.288 58.8006 322.387 -10.4142L330.226 106.121H13.1709Z" fill="url(#paint2_linear_3314_5065)"/>
<path d="M78.6105 61.6L78.2505 54.12L91.6505 40H98.8505L86.7705 53L83.1705 56.84L78.6105 61.6ZM72.8105 68V40H79.2505V68H72.8105ZM91.9705 68L82.0105 55.8L86.2505 51.2L99.5305 68H91.9705ZM101.572 68V46.48H107.812V68H101.572ZM104.692 43.48C103.545 43.48 102.612 43.1467 101.892 42.48C101.172 41.8133 100.812 40.9867 100.812 40C100.812 39.0133 101.172 38.1867 101.892 37.52C102.612 36.8533 103.545 36.52 104.692 36.52C105.839 36.52 106.772 36.84 107.492 37.48C108.212 38.0933 108.572 38.8933 108.572 39.88C108.572 40.92 108.212 41.7867 107.492 42.48C106.799 43.1467 105.865 43.48 104.692 43.48ZM121.995 68.32C119.462 68.32 117.488 67.68 116.075 66.4C114.662 65.0933 113.955 63.16 113.955 60.6V41.72H120.195V60.52C120.195 61.4267 120.435 62.1333 120.915 62.64C121.395 63.12 122.048 63.36 122.875 63.36C123.862 63.36 124.702 63.0933 125.395 62.56L127.075 66.96C126.435 67.4133 125.662 67.76 124.755 68C123.875 68.2133 122.955 68.32 121.995 68.32ZM110.635 51.76V46.96H125.555V51.76H110.635ZM143.37 68V63.8L142.97 62.88V55.36C142.97 54.0267 142.557 52.9867 141.73 52.24C140.93 51.4933 139.69 51.12 138.01 51.12C136.863 51.12 135.73 51.3067 134.61 51.68C133.517 52.0267 132.583 52.5067 131.81 53.12L129.57 48.76C130.743 47.9333 132.157 47.2933 133.81 46.84C135.463 46.3867 137.143 46.16 138.85 46.16C142.13 46.16 144.677 46.9333 146.49 48.48C148.303 50.0267 149.21 52.44 149.21 55.72V68H143.37ZM136.81 68.32C135.13 68.32 133.69 68.04 132.49 67.48C131.29 66.8933 130.37 66.1067 129.73 65.12C129.09 64.1333 128.77 63.0267 128.77 61.8C128.77 60.52 129.077 59.4 129.69 58.44C130.33 57.48 131.33 56.7333 132.69 56.2C134.05 55.64 135.823 55.36 138.01 55.36H143.73V59H138.69C137.223 59 136.21 59.24 135.65 59.72C135.117 60.2 134.85 60.8 134.85 61.52C134.85 62.32 135.157 62.96 135.77 63.44C136.41 63.8933 137.277 64.12 138.37 64.12C139.41 64.12 140.343 63.88 141.17 63.4C141.997 62.8933 142.597 62.16 142.97 61.2L143.93 64.08C143.477 65.4667 142.65 66.52 141.45 67.24C140.25 67.96 138.703 68.32 136.81 68.32ZM168.409 68.48C166.196 68.48 164.156 68.1333 162.289 67.44C160.449 66.72 158.836 65.7067 157.449 64.4C156.089 63.0933 155.023 61.56 154.249 59.8C153.503 58.04 153.129 56.1067 153.129 54C153.129 51.8933 153.503 49.96 154.249 48.2C155.023 46.44 156.103 44.9067 157.489 43.6C158.876 42.2933 160.503 41.2933 162.369 40.6C164.236 39.88 166.289 39.52 168.529 39.52C171.009 39.52 173.236 39.9333 175.209 40.76C177.209 41.5867 178.889 42.7867 180.249 44.36L176.089 48.2C175.076 47.1333 173.969 46.3467 172.769 45.84C171.569 45.3067 170.263 45.04 168.849 45.04C167.489 45.04 166.249 45.2533 165.129 45.68C164.009 46.1067 163.036 46.72 162.209 47.52C161.409 48.32 160.783 49.2667 160.329 50.36C159.903 51.4533 159.689 52.6667 159.689 54C159.689 55.3067 159.903 56.5067 160.329 57.6C160.783 58.6933 161.409 59.6533 162.209 60.48C163.036 61.28 163.996 61.8933 165.089 62.32C166.209 62.7467 167.436 62.96 168.769 62.96C170.049 62.96 171.289 62.76 172.489 62.36C173.716 61.9333 174.903 61.2267 176.049 60.24L179.729 64.92C178.209 66.0667 176.436 66.9467 174.409 67.56C172.409 68.1733 170.409 68.48 168.409 68.48ZM173.809 64.08V53.56H179.729V64.92L173.809 64.08ZM184.901 68V46.48H190.861V52.56L190.021 50.8C190.661 49.28 191.687 48.1333 193.101 47.36C194.514 46.56 196.234 46.16 198.261 46.16V51.92C197.994 51.8933 197.754 51.88 197.541 51.88C197.327 51.8533 197.101 51.84 196.861 51.84C195.154 51.84 193.767 52.3333 192.701 53.32C191.661 54.28 191.141 55.7867 191.141 57.84V68H184.901ZM213.357 68V63.8L212.957 62.88V55.36C212.957 54.0267 212.544 52.9867 211.717 52.24C210.917 51.4933 209.677 51.12 207.997 51.12C206.85 51.12 205.717 51.3067 204.597 51.68C203.504 52.0267 202.57 52.5067 201.797 53.12L199.557 48.76C200.73 47.9333 202.144 47.2933 203.797 46.84C205.45 46.3867 207.13 46.16 208.837 46.16C212.117 46.16 214.664 46.9333 216.477 48.48C218.29 50.0267 219.197 52.44 219.197 55.72V68H213.357ZM206.797 68.32C205.117 68.32 203.677 68.04 202.477 67.48C201.277 66.8933 200.357 66.1067 199.717 65.12C199.077 64.1333 198.757 63.0267 198.757 61.8C198.757 60.52 199.064 59.4 199.677 58.44C200.317 57.48 201.317 56.7333 202.677 56.2C204.037 55.64 205.81 55.36 207.997 55.36H213.717V59H208.677C207.21 59 206.197 59.24 205.637 59.72C205.104 60.2 204.837 60.8 204.837 61.52C204.837 62.32 205.144 62.96 205.757 63.44C206.397 63.8933 207.264 64.12 208.357 64.12C209.397 64.12 210.33 63.88 211.157 63.4C211.984 62.8933 212.584 62.16 212.957 61.2L213.917 64.08C213.464 65.4667 212.637 66.52 211.437 67.24C210.237 67.96 208.69 68.32 206.797 68.32ZM251.996 46.16C253.703 46.16 255.21 46.5067 256.516 47.2C257.85 47.8667 258.89 48.9067 259.636 50.32C260.41 51.7067 260.796 53.4933 260.796 55.68V68H254.556V56.64C254.556 54.9067 254.196 53.6267 253.476 52.8C252.756 51.9733 251.743 51.56 250.436 51.56C249.53 51.56 248.716 51.7733 247.996 52.2C247.276 52.6 246.716 53.2133 246.316 54.04C245.916 54.8667 245.716 55.92 245.716 57.2V68H239.476V56.64C239.476 54.9067 239.116 53.6267 238.396 52.8C237.703 51.9733 236.703 51.56 235.396 51.56C234.49 51.56 233.676 51.7733 232.956 52.2C232.236 52.6 231.676 53.2133 231.276 54.04C230.876 54.8667 230.676 55.92 230.676 57.2V68H224.436V46.48H230.396V52.36L229.276 50.64C230.023 49.1733 231.076 48.0667 232.436 47.32C233.823 46.5467 235.396 46.16 237.156 46.16C239.13 46.16 240.85 46.6667 242.316 47.68C243.81 48.6667 244.796 50.1867 245.276 52.24L243.076 51.64C243.796 49.96 244.943 48.6267 246.516 47.64C248.116 46.6533 249.943 46.16 251.996 46.16Z" fill="white" fill-opacity="0.4"/>
</g>
</g>
</g>
<defs>
<filter id="filter0_d_3314_5065" x="0" y="0" width="333" height="124" filterUnits="userSpaceOnUse" color-interpolation-filters="sRGB">
<feFlood flood-opacity="0" result="BackgroundImageFix"/>
<feColorMatrix in="SourceAlpha" type="matrix" values="0 0 0 0 0 0 0 0 0 0 0 0 0 0 0 0 0 0 127 0" result="hardAlpha"/>
<feOffset dy="8"/>
<feGaussianBlur stdDeviation="9"/>
<feColorMatrix type="matrix" values="0 0 0 0 0.0604107 0 0 0 0 0.199302 0 0 0 0 0.419214 0 0 0 0.15 0"/>
<feBlend mode="normal" in2="BackgroundImageFix" result="effect1_dropShadow_3314_5065"/>
<feBlend mode="normal" in="SourceGraphic" in2="effect1_dropShadow_3314_5065" result="shape"/>
</filter>
<linearGradient id="paint0_linear_3314_5065" x1="322.566" y1="35.0731" x2="266.404" y2="175.938" gradientUnits="userSpaceOnUse">
<stop stop-color="#EEEEEE"/>
<stop offset="1" stop-color="#D8D8D8" stop-opacity="0"/>
</linearGradient>
<linearGradient id="paint1_linear_3314_5065" x1="395.777" y1="34.8193" x2="339.615" y2="175.684" gradientUnits="userSpaceOnUse">
<stop stop-color="#EEEEEE"/>
<stop offset="1" stop-color="#D8D8D8" stop-opacity="0"/>
</linearGradient>
<linearGradient id="paint2_linear_3314_5065" x1="338.737" y1="23.9505" x2="268.786" y2="180.918" gradientUnits="userSpaceOnUse">
<stop stop-color="#EEEEEE"/>
<stop offset="1" stop-color="#D8D8D8" stop-opacity="0"/>
</linearGradient>
<clipPath id="clip0_3314_5065">
<rect x="18" y="10" width="297" height="88" rx="20" fill="white"/>
</clipPath>
</defs>
</svg>
