<svg width="389" height="844" viewBox="0 0 389 844" fill="none" xmlns="http://www.w3.org/2000/svg">
<rect width="389" height="844" fill="url(#paint0_linear_3368_9384)"/>
<mask id="mask0_3368_9384" style="mask-type:alpha" maskUnits="userSpaceOnUse" x="7" y="0" width="375" height="487">
<rect x="7" width="375" height="487" fill="url(#paint1_linear_3368_9384)"/>
</mask>
<g mask="url(#mask0_3368_9384)">
<rect x="301.5" y="243.5" width="63" height="63" rx="31.5" fill="white" fill-opacity="0.2"/>
<rect x="301.5" y="243.5" width="63" height="63" rx="31.5" stroke="url(#paint2_linear_3368_9384)"/>
<path d="M326.8 274.3L323 285L333.7 281.21" stroke="black" stroke-width="2" stroke-linecap="round" stroke-linejoin="round"/>
<path d="M325 266H325.01" stroke="black" stroke-width="2" stroke-linecap="round" stroke-linejoin="round"/>
<path d="M343 271H343.01" stroke="black" stroke-width="2" stroke-linecap="round" stroke-linejoin="round"/>
<path d="M336 265H336.01" stroke="black" stroke-width="2" stroke-linecap="round" stroke-linejoin="round"/>
<path d="M343 283H343.01" stroke="black" stroke-width="2" stroke-linecap="round" stroke-linejoin="round"/>
<path d="M343 265L340.76 265.75C340.122 265.962 339.578 266.39 339.221 266.959C338.863 267.528 338.715 268.203 338.8 268.87C338.9 269.73 338.23 270.5 337.35 270.5H336.97C336.11 270.5 335.37 271.1 335.21 271.94L335 273" stroke="black" stroke-width="2" stroke-linecap="round" stroke-linejoin="round"/>
<path d="M343 276L342.18 275.67C341.32 275.33 340.36 275.87 340.2 276.78C340.09 277.48 339.48 278 338.77 278H338" stroke="black" stroke-width="2" stroke-linecap="round" stroke-linejoin="round"/>
<path d="M332 265L332.33 265.82C332.67 266.68 332.13 267.64 331.22 267.8C330.52 267.9 330 268.52 330 269.23V270" stroke="black" stroke-width="2" stroke-linecap="round" stroke-linejoin="round"/>
<path d="M332 276C333.93 277.93 334.83 280.17 334 281C333.17 281.83 330.93 280.93 329 279C327.07 277.07 326.17 274.83 327 274C327.83 273.17 330.07 274.07 332 276Z" stroke="black" stroke-width="2" stroke-linecap="round" stroke-linejoin="round"/>
<rect x="301.5" y="331.5" width="63" height="63" rx="31.5" fill="white" fill-opacity="0.2"/>
<rect x="301.5" y="331.5" width="63" height="63" rx="31.5" stroke="url(#paint3_linear_3368_9384)"/>
<path d="M328 359H326.5C325.837 359 325.201 358.737 324.732 358.268C324.263 357.799 324 357.163 324 356.5C324 355.837 324.263 355.201 324.732 354.732C325.201 354.263 325.837 354 326.5 354H328" stroke="black" stroke-width="2" stroke-linecap="round" stroke-linejoin="round"/>
<path d="M340 359H341.5C342.163 359 342.799 358.737 343.268 358.268C343.737 357.799 344 357.163 344 356.5C344 355.837 343.737 355.201 343.268 354.732C342.799 354.263 342.163 354 341.5 354H340" stroke="black" stroke-width="2" stroke-linecap="round" stroke-linejoin="round"/>
<path d="M326 372H342" stroke="black" stroke-width="2" stroke-linecap="round" stroke-linejoin="round"/>
<path d="M332 364.66V367C332 367.55 331.53 367.98 331.03 368.21C329.85 368.75 329 370.24 329 372" stroke="black" stroke-width="2" stroke-linecap="round" stroke-linejoin="round"/>
<path d="M336 364.66V367C336 367.55 336.47 367.98 336.97 368.21C338.15 368.75 339 370.24 339 372" stroke="black" stroke-width="2" stroke-linecap="round" stroke-linejoin="round"/>
<path d="M340 352H328V359C328 360.591 328.632 362.117 329.757 363.243C330.883 364.368 332.409 365 334 365C335.591 365 337.117 364.368 338.243 363.243C339.368 362.117 340 360.591 340 359V352Z" stroke="black" stroke-width="2" stroke-linecap="round" stroke-linejoin="round"/>
<rect x="301.5" y="419.5" width="63" height="63" rx="31.5" fill="white" fill-opacity="0.2"/>
<rect x="301.5" y="419.5" width="63" height="63" rx="31.5" stroke="url(#paint4_linear_3368_9384)"/>
<path d="M341 449C341 455 333 461 333 461C333 461 325 455 325 449C325 446.878 325.843 444.843 327.343 443.343C328.843 441.843 330.878 441 333 441C335.122 441 337.157 441.843 338.657 443.343C340.157 444.843 341 446.878 341 449Z" stroke="black" stroke-width="2" stroke-linecap="round" stroke-linejoin="round"/>
<path d="M333 452C334.657 452 336 450.657 336 449C336 447.343 334.657 446 333 446C331.343 446 330 447.343 330 449C330 450.657 331.343 452 333 452Z" stroke="black" stroke-width="2" stroke-linecap="round" stroke-linejoin="round"/>
<rect x="209.5" y="296.5" width="63" height="63" rx="31.5" fill="white" fill-opacity="0.2"/>
<rect x="209.5" y="296.5" width="63" height="63" rx="31.5" stroke="url(#paint5_linear_3368_9384)"/>
<path d="M246 324H247C248.061 324 249.078 324.421 249.828 325.172C250.579 325.922 251 326.939 251 328C251 329.061 250.579 330.078 249.828 330.828C249.078 331.579 248.061 332 247 332H246" stroke="black" stroke-width="2" stroke-linecap="round" stroke-linejoin="round"/>
<path d="M232 324H246V333C246 334.061 245.579 335.078 244.828 335.828C244.078 336.579 243.061 337 242 337H236C234.939 337 233.922 336.579 233.172 335.828C232.421 335.078 232 334.061 232 333V324Z" stroke="black" stroke-width="2" stroke-linecap="round" stroke-linejoin="round"/>
<path d="M235 318V320" stroke="black" stroke-width="2" stroke-linecap="round" stroke-linejoin="round"/>
<path d="M239 318V320" stroke="black" stroke-width="2" stroke-linecap="round" stroke-linejoin="round"/>
<path d="M243 318V320" stroke="black" stroke-width="2" stroke-linecap="round" stroke-linejoin="round"/>
<rect x="209.5" y="384.5" width="63" height="63" rx="31.5" fill="white" fill-opacity="0.2"/>
<rect x="209.5" y="384.5" width="63" height="63" rx="31.5" stroke="url(#paint6_linear_3368_9384)"/>
<path d="M249 414C249 420 241 426 241 426C241 426 233 420 233 414C233 411.878 233.843 409.843 235.343 408.343C236.843 406.843 238.878 406 241 406C243.122 406 245.157 406.843 246.657 408.343C248.157 409.843 249 411.878 249 414Z" stroke="black" stroke-width="2" stroke-linecap="round" stroke-linejoin="round"/>
<path d="M241 417C242.657 417 244 415.657 244 414C244 412.343 242.657 411 241 411C239.343 411 238 412.343 238 414C238 415.657 239.343 417 241 417Z" stroke="black" stroke-width="2" stroke-linecap="round" stroke-linejoin="round"/>
<rect x="209.5" y="472.5" width="63" height="63" rx="31.5" fill="white" fill-opacity="0.2"/>
<rect x="209.5" y="472.5" width="63" height="63" rx="31.5" stroke="url(#paint7_linear_3368_9384)"/>
<rect x="117.5" y="243.5" width="63" height="63" rx="31.5" fill="white" fill-opacity="0.2"/>
<rect x="117.5" y="243.5" width="63" height="63" rx="31.5" stroke="url(#paint8_linear_3368_9384)"/>
<path d="M144 271H142.5C141.837 271 141.201 270.737 140.732 270.268C140.263 269.799 140 269.163 140 268.5C140 267.837 140.263 267.201 140.732 266.732C141.201 266.263 141.837 266 142.5 266H144" stroke="black" stroke-width="2" stroke-linecap="round" stroke-linejoin="round"/>
<path d="M156 271H157.5C158.163 271 158.799 270.737 159.268 270.268C159.737 269.799 160 269.163 160 268.5C160 267.837 159.737 267.201 159.268 266.732C158.799 266.263 158.163 266 157.5 266H156" stroke="black" stroke-width="2" stroke-linecap="round" stroke-linejoin="round"/>
<path d="M142 284H158" stroke="black" stroke-width="2" stroke-linecap="round" stroke-linejoin="round"/>
<path d="M148 276.66V279C148 279.55 147.53 279.98 147.03 280.21C145.85 280.75 145 282.24 145 284" stroke="black" stroke-width="2" stroke-linecap="round" stroke-linejoin="round"/>
<path d="M152 276.66V279C152 279.55 152.47 279.98 152.97 280.21C154.15 280.75 155 282.24 155 284" stroke="black" stroke-width="2" stroke-linecap="round" stroke-linejoin="round"/>
<path d="M156 264H144V271C144 272.591 144.632 274.117 145.757 275.243C146.883 276.368 148.409 277 150 277C151.591 277 153.117 276.368 154.243 275.243C155.368 274.117 156 272.591 156 271V264Z" stroke="black" stroke-width="2" stroke-linecap="round" stroke-linejoin="round"/>
<rect x="117.5" y="331.5" width="63" height="63" rx="31.5" fill="white" fill-opacity="0.2"/>
<rect x="117.5" y="331.5" width="63" height="63" rx="31.5" stroke="url(#paint9_linear_3368_9384)"/>
<path d="M142.8 362.3L139 373L149.7 369.21" stroke="black" stroke-width="2" stroke-linecap="round" stroke-linejoin="round"/>
<path d="M141 354H141.01" stroke="black" stroke-width="2" stroke-linecap="round" stroke-linejoin="round"/>
<path d="M159 359H159.01" stroke="black" stroke-width="2" stroke-linecap="round" stroke-linejoin="round"/>
<path d="M152 353H152.01" stroke="black" stroke-width="2" stroke-linecap="round" stroke-linejoin="round"/>
<path d="M159 371H159.01" stroke="black" stroke-width="2" stroke-linecap="round" stroke-linejoin="round"/>
<path d="M159 353L156.76 353.75C156.122 353.962 155.578 354.39 155.221 354.959C154.863 355.528 154.715 356.203 154.8 356.87C154.9 357.73 154.23 358.5 153.35 358.5H152.97C152.11 358.5 151.37 359.1 151.21 359.94L151 361" stroke="black" stroke-width="2" stroke-linecap="round" stroke-linejoin="round"/>
<path d="M159 364L158.18 363.67C157.32 363.33 156.36 363.87 156.2 364.78C156.09 365.48 155.48 366 154.77 366H154" stroke="black" stroke-width="2" stroke-linecap="round" stroke-linejoin="round"/>
<path d="M148 353L148.33 353.82C148.67 354.68 148.13 355.64 147.22 355.8C146.52 355.9 146 356.52 146 357.23V358" stroke="black" stroke-width="2" stroke-linecap="round" stroke-linejoin="round"/>
<path d="M148 364C149.93 365.93 150.83 368.17 150 369C149.17 369.83 146.93 368.93 145 367C143.07 365.07 142.17 362.83 143 362C143.83 361.17 146.07 362.07 148 364Z" stroke="black" stroke-width="2" stroke-linecap="round" stroke-linejoin="round"/>
<rect x="117.5" y="419.5" width="63" height="63" rx="31.5" fill="white" fill-opacity="0.2"/>
<rect x="117.5" y="419.5" width="63" height="63" rx="31.5" stroke="url(#paint10_linear_3368_9384)"/>
<path d="M157 449C157 455 149 461 149 461C149 461 141 455 141 449C141 446.878 141.843 444.843 143.343 443.343C144.843 441.843 146.878 441 149 441C151.122 441 153.157 441.843 154.657 443.343C156.157 444.843 157 446.878 157 449Z" stroke="black" stroke-width="2" stroke-linecap="round" stroke-linejoin="round"/>
<path d="M149 452C150.657 452 152 450.657 152 449C152 447.343 150.657 446 149 446C147.343 446 146 447.343 146 449C146 450.657 147.343 452 149 452Z" stroke="black" stroke-width="2" stroke-linecap="round" stroke-linejoin="round"/>
<rect x="25.5" y="296.5" width="63" height="63" rx="31.5" fill="white" fill-opacity="0.2"/>
<rect x="25.5" y="296.5" width="63" height="63" rx="31.5" stroke="url(#paint11_linear_3368_9384)"/>
<path d="M65 326C65 332 57 338 57 338C57 338 49 332 49 326C49 323.878 49.8429 321.843 51.3431 320.343C52.8434 318.843 54.8783 318 57 318C59.1217 318 61.1566 318.843 62.6569 320.343C64.1571 321.843 65 323.878 65 326Z" stroke="black" stroke-width="2" stroke-linecap="round" stroke-linejoin="round"/>
<path d="M57 329C58.6569 329 60 327.657 60 326C60 324.343 58.6569 323 57 323C55.3431 323 54 324.343 54 326C54 327.657 55.3431 329 57 329Z" stroke="black" stroke-width="2" stroke-linecap="round" stroke-linejoin="round"/>
<rect x="25.5" y="384.5" width="63" height="63" rx="31.5" fill="white" fill-opacity="0.2"/>
<rect x="25.5" y="384.5" width="63" height="63" rx="31.5" stroke="url(#paint12_linear_3368_9384)"/>
<path d="M52 412H50.5C49.837 412 49.2011 411.737 48.7322 411.268C48.2634 410.799 48 410.163 48 409.5C48 408.837 48.2634 408.201 48.7322 407.732C49.2011 407.263 49.837 407 50.5 407H52" stroke="black" stroke-width="2" stroke-linecap="round" stroke-linejoin="round"/>
<path d="M64 412H65.5C66.163 412 66.7989 411.737 67.2678 411.268C67.7366 410.799 68 410.163 68 409.5C68 408.837 67.7366 408.201 67.2678 407.732C66.7989 407.263 66.163 407 65.5 407H64" stroke="black" stroke-width="2" stroke-linecap="round" stroke-linejoin="round"/>
<path d="M50 425H66" stroke="black" stroke-width="2" stroke-linecap="round" stroke-linejoin="round"/>
<path d="M56 417.66V420C56 420.55 55.53 420.98 55.03 421.21C53.85 421.75 53 423.24 53 425" stroke="black" stroke-width="2" stroke-linecap="round" stroke-linejoin="round"/>
<path d="M60 417.66V420C60 420.55 60.47 420.98 60.97 421.21C62.15 421.75 63 423.24 63 425" stroke="black" stroke-width="2" stroke-linecap="round" stroke-linejoin="round"/>
<path d="M64 405H52V412C52 413.591 52.6321 415.117 53.7574 416.243C54.8826 417.368 56.4087 418 58 418C59.5913 418 61.1174 417.368 62.2426 416.243C63.3679 415.117 64 413.591 64 412V405Z" stroke="black" stroke-width="2" stroke-linecap="round" stroke-linejoin="round"/>
<rect x="25.5" y="472.5" width="63" height="63" rx="31.5" fill="white" fill-opacity="0.2"/>
<rect x="25.5" y="472.5" width="63" height="63" rx="31.5" stroke="url(#paint13_linear_3368_9384)"/>
</g>
<defs>
<linearGradient id="paint0_linear_3368_9384" x1="0" y1="422" x2="389" y2="422" gradientUnits="userSpaceOnUse">
<stop stop-color="#2460BC"/>
<stop offset="1" stop-color="#478EFA"/>
</linearGradient>
<linearGradient id="paint1_linear_3368_9384" x1="194.5" y1="0" x2="194.5" y2="487" gradientUnits="userSpaceOnUse">
<stop stop-color="#D9D9D9"/>
<stop offset="1" stop-color="#D9D9D9" stop-opacity="0"/>
</linearGradient>
<linearGradient id="paint2_linear_3368_9384" x1="333" y1="243" x2="333" y2="307" gradientUnits="userSpaceOnUse">
<stop stop-color="white"/>
<stop offset="1" stop-color="white" stop-opacity="0"/>
</linearGradient>
<linearGradient id="paint3_linear_3368_9384" x1="333" y1="331" x2="333" y2="395" gradientUnits="userSpaceOnUse">
<stop stop-color="white"/>
<stop offset="1" stop-color="white" stop-opacity="0"/>
</linearGradient>
<linearGradient id="paint4_linear_3368_9384" x1="333" y1="419" x2="333" y2="483" gradientUnits="userSpaceOnUse">
<stop stop-color="white"/>
<stop offset="1" stop-color="white" stop-opacity="0"/>
</linearGradient>
<linearGradient id="paint5_linear_3368_9384" x1="241" y1="296" x2="241" y2="360" gradientUnits="userSpaceOnUse">
<stop stop-color="white"/>
<stop offset="1" stop-color="white" stop-opacity="0"/>
</linearGradient>
<linearGradient id="paint6_linear_3368_9384" x1="241" y1="384" x2="241" y2="448" gradientUnits="userSpaceOnUse">
<stop stop-color="white"/>
<stop offset="1" stop-color="white" stop-opacity="0"/>
</linearGradient>
<linearGradient id="paint7_linear_3368_9384" x1="241" y1="472" x2="241" y2="536" gradientUnits="userSpaceOnUse">
<stop stop-color="white"/>
<stop offset="1" stop-color="white" stop-opacity="0"/>
</linearGradient>
<linearGradient id="paint8_linear_3368_9384" x1="149" y1="243" x2="149" y2="307" gradientUnits="userSpaceOnUse">
<stop stop-color="white"/>
<stop offset="1" stop-color="white" stop-opacity="0"/>
</linearGradient>
<linearGradient id="paint9_linear_3368_9384" x1="149" y1="331" x2="149" y2="395" gradientUnits="userSpaceOnUse">
<stop stop-color="white"/>
<stop offset="1" stop-color="white" stop-opacity="0"/>
</linearGradient>
<linearGradient id="paint10_linear_3368_9384" x1="149" y1="419" x2="149" y2="483" gradientUnits="userSpaceOnUse">
<stop stop-color="white"/>
<stop offset="1" stop-color="white" stop-opacity="0"/>
</linearGradient>
<linearGradient id="paint11_linear_3368_9384" x1="57" y1="296" x2="57" y2="360" gradientUnits="userSpaceOnUse">
<stop stop-color="white"/>
<stop offset="1" stop-color="white" stop-opacity="0"/>
</linearGradient>
<linearGradient id="paint12_linear_3368_9384" x1="57" y1="384" x2="57" y2="448" gradientUnits="userSpaceOnUse">
<stop stop-color="white"/>
<stop offset="1" stop-color="white" stop-opacity="0"/>
</linearGradient>
<linearGradient id="paint13_linear_3368_9384" x1="57" y1="472" x2="57" y2="536" gradientUnits="userSpaceOnUse">
<stop stop-color="white"/>
<stop offset="1" stop-color="white" stop-opacity="0"/>
</linearGradient>
</defs>
</svg>
