<svg width="64" height="64" viewBox="0 0 64 64" fill="none" xmlns="http://www.w3.org/2000/svg">
<circle cx="32" cy="32" r="32" fill="#F3F3F3"/>
<path d="M31.9982 52C42.9545 52 52 42.9413 52 32C52 21.0427 42.9386 12 31.9824 12C21.0454 12 12 21.0427 12 32C12 42.9413 21.0614 52 31.9982 52ZM22.5366 32.0124C22.5366 30.8905 23.3242 30.096 24.4389 30.096H30.0979V24.433C30.0979 23.3217 30.88 22.5146 31.9824 22.5146C33.1041 22.5146 33.8986 23.3217 33.8986 24.433V30.096H39.577C40.6758 30.096 41.4793 30.8905 41.4793 32.0124C41.4793 33.1183 40.6758 33.8812 39.577 33.8812H33.8986V39.5601C33.8986 40.6714 33.1041 41.459 31.9824 41.459C30.88 41.459 30.0979 40.6555 30.0979 39.5601V33.8812H24.4389C23.3242 33.8812 22.5366 33.1183 22.5366 32.0124Z" fill="#F9BC60"/>
</svg>
