<svg width="62" height="64" viewBox="0 0 62 64" fill="none" xmlns="http://www.w3.org/2000/svg">
<ellipse cx="31" cy="32" rx="31" ry="32" fill="#F3F3F3"/>
<path d="M29.5977 43H31.4062C31.9892 43 32.434 42.654 32.5525 42.0805L33.0565 39.9746C33.3925 39.8559 33.7187 39.7274 34.0151 39.589L35.8532 40.7161C36.3375 41.0226 36.9008 40.9732 37.306 40.5678L38.5709 39.3023C38.9761 38.8969 39.0354 38.3037 38.7092 37.8192L37.5925 36C37.7309 35.6935 37.8692 35.3771 37.9681 35.0706L40.0829 34.5664C40.6561 34.4379 41.002 34.0028 41.002 33.4195V31.6398C41.002 31.0565 40.6561 30.6215 40.0829 30.4929L37.9878 29.9887C37.8692 29.6328 37.7309 29.3164 37.6123 29.0494L38.729 27.1907C39.0452 26.6963 39.0057 26.1427 38.5907 25.7274L37.306 24.4619C36.8909 24.0862 36.377 24.0169 35.8829 24.2938L34.0151 25.4407C33.7285 25.3023 33.4123 25.1737 33.0565 25.0551L32.5525 22.9195C32.434 22.346 31.9892 22 31.4062 22H29.5977C29.0048 22 28.57 22.346 28.4415 22.9294L27.9474 25.0353C27.6015 25.154 27.2655 25.2825 26.969 25.4308L25.1111 24.2938C24.617 24.0169 24.1031 24.0763 23.6881 24.4619L22.4034 25.7274C21.9883 26.1427 21.9488 26.6963 22.265 27.1907L23.3817 29.0494C23.2631 29.3164 23.1248 29.6328 23.0161 29.9887L20.921 30.4929C20.3478 30.6215 20.002 31.0565 20.002 31.6398V33.4195C20.002 34.0028 20.3478 34.4379 20.921 34.5664L23.0358 35.0706C23.1347 35.3771 23.2631 35.6935 23.4015 36L22.2848 37.8192C21.9587 38.3037 22.018 38.8969 22.4231 39.3023L23.6881 40.5678C24.0932 40.9732 24.6664 41.0226 25.1507 40.7161L26.9789 39.589C27.2754 39.7274 27.6015 39.8559 27.9474 39.9746L28.4415 42.0805C28.57 42.654 29.0048 43 29.5977 43ZM30.5069 35.9605C28.5996 35.9605 27.0382 34.3983 27.0382 32.4901C27.0382 30.6017 28.5996 29.0395 30.5069 29.0395C32.4043 29.0395 33.9558 30.6017 33.9558 32.4901C33.9558 34.3983 32.4043 35.9605 30.5069 35.9605Z" fill="#B7B7B7"/>
</svg>
