<svg width="62" height="64" viewBox="0 0 62 64" fill="none" xmlns="http://www.w3.org/2000/svg">
<ellipse cx="31" cy="32" rx="31" ry="32" fill="#F3F3F3"/>
<path d="M42.377 39H39.252V25.9316C39.252 24.8668 38.4109 24 37.377 24H33.002V26.5H36.752V41.5H42.377C42.7223 41.5 43.002 41.2203 43.002 40.875V39.625C43.002 39.2796 42.7223 39 42.377 39ZM30.1988 21.5394L22.6988 23.4824C22.1422 23.6265 21.752 24.1445 21.752 24.739V39H18.627C18.2816 39 18.002 39.2796 18.002 39.625V40.875C18.002 41.2203 18.2816 41.5 18.627 41.5H31.752V22.7961C31.752 21.9531 30.9879 21.3347 30.1988 21.5394ZM28.3145 32.75C27.7969 32.75 27.377 32.1902 27.377 31.5C27.377 30.8097 27.7969 30.25 28.3145 30.25C28.832 30.25 29.252 30.8097 29.252 31.5C29.252 32.1902 28.832 32.75 28.3145 32.75Z" fill="#F9BC60"/>
<circle cx="40.5" cy="22.5" r="4.5" fill="#E16162"/>
</svg>
